<svg width="18" height="20" viewBox="0 0 18 20" fill="none" xmlns="http://www.w3.org/2000/svg">
<path fill-rule="evenodd" clip-rule="evenodd" d="M16.1 17.16C16.69 16.26 16.91 15.8 17.36 14.79C14.04 13.53 13.51 8.8 16.79 6.99C15.79 5.73 14.38 5 13.05 5C12.09 5 11.43 5.25 10.84 5.48C10.34 5.67 9.89001 5.84 9.33001 5.84C8.73001 5.84 8.20001 5.65 7.64001 5.45C7.03001 5.23 6.39001 5 5.59001 5C4.10001 5 2.51001 5.91 1.50001 7.47C0.0800064 9.67 0.330006 13.79 2.62001 17.31C3.44001 18.57 4.54001 19.98 5.97001 20C6.57001 20.01 6.96001 19.83 7.39001 19.64C7.88001 19.42 8.41001 19.18 9.34001 19.18C10.27 19.17 10.79 19.42 11.28 19.64C11.7 19.83 12.08 20.01 12.67 20C14.12 19.98 15.28 18.42 16.1 17.16ZM12.84 0C13 1.1 12.55 2.19 11.96 2.95C11.33 3.77 10.23 4.41 9.17001 4.37C8.98001 3.31 9.47001 2.22 10.07 1.49C10.74 0.69 11.87 0.07 12.84 0Z" fill="#D6AA40"/>
</svg>
