
<svg width="1060" height="257" viewBox="0 0 1060 257" fill="none" xmlns="http://www.w3.org/2000/svg">
  <defs>
    <filter id="f2" x="0" y="0" width="200%" height="200%">
      <!-- <feOffset result="offOut" in="SourceGraphic" dx="20" dy="20" /> -->
      <feGaussianBlur result="blurOut" in="offOut" stdDeviation="10" />
      <!-- <feBlend in="SourceGraphic" in2="blurOut" mode="normal" /> -->
    </filter>
  </defs>
<g id="Group 4">
<g id="Group">
<g id="Group_2">
<path id="Vector" d="M18.35 163.33L0 57.1299L29.98 51.9499L36.91 92.0699L105.67 80.1899L98.74 40.0699L128.72 34.8899L147.07 141.09L117.09 146.27L109.31 101.22L40.55 113.1L48.33 158.15L18.35 163.33Z" fill="#D6AA40"/>
<path id="Vector_2" d="M167.91 119.22L172.54 81.51L128.31 5.78003L161.06 9.80003L189.98 62.46L190.28 62.5L230.02 18.27L262.92 22.31L202.74 85.23L198.11 122.94L167.91 119.23V119.22Z" fill="#D6AA40"/>
<path id="Vector_3" d="M252.72 174.13L235.96 67.67L317.9 54.77C327.37 53.28 335.66 53.41 342.78 55.14C349.9 56.88 355.61 60.19 359.9 65.09C364.19 69.98 366.95 76.27 368.15 83.94C369.33 91.42 368.59 98.1 365.94 103.98C363.29 109.86 358.84 114.7 352.59 118.49C346.34 122.28 338.43 124.93 328.86 126.44L277.28 134.56L282.77 169.4L252.71 174.13H252.72ZM317.05 109.76C322.14 108.96 326.33 107.58 329.66 105.63C332.98 103.68 335.33 101.24 336.7 98.31C338.08 95.39 338.47 92.03 337.87 88.24C336.99 82.66 334.29 78.64 329.77 76.18C325.24 73.73 319.14 73.1 311.47 74.31L268.86 81.02L274.44 116.46L317.05 109.75V109.76Z" fill="#D6AA40"/>
<path id="Vector_4" d="M371.5 144.91L385.14 38L421.93 42.69L478.96 129.16L479.11 129.18L489.05 51.25L517.88 54.93L504.24 161.84L467.3 157.13L410.35 70.06L410.2 70.04L400.18 148.57L371.5 144.91Z" fill="#D6AA40"/>
<path id="Vector_5" d="M683.33 134.19L697.72 49.7301L653.25 42.1501L656.96 20.3601L775.89 40.6201L772.18 62.4101L727.57 54.8101L713.18 139.27L683.33 134.18V134.19Z" fill="#D6AA40"/>
<path id="Vector_6" d="M762.67 189.87L752.3 82.5899L782.43 79.6799L792.8 186.96L762.67 189.87Z" fill="#D6AA40"/>
<path id="Vector_7" d="M815.7 158.79L811.55 134.78L881.54 58.93L802.34 72.63L799.13 52.29L912.34 32.71L916.25 57.07L846.06 132.65L928.4 118.41L931.91 138.7L815.72 158.79H815.7Z" fill="#D6AA40"/>
<path id="Vector_8" d="M917.84 100.81L955.96 0L1059.46 39.14L1052.45 57.69L976.56 28.99L968.1 51.36L1038.33 77.91L1032.07 94.48L961.84 67.93L952.53 92.56L1029.84 121.79L1022.77 140.48L917.85 100.81H917.84Z" fill="#D6AA40"/>
<g id="a9SpHU">
<g id="Group_3">
<!-- <path id="Vector_9" d="M590.64 28.35C590.54 28.05 590.45 27.75 590.35 27.45C589.2 27.58 588.03 27.65 586.89 27.86C572.06 30.64 559.24 37.1899 548.2 47.5999C531.73 63.1199 524.15 82.3399 524.64 104.57C525.1 125.11 533.14 142.56 548.29 156.74C559.38 167.12 572.37 173.58 587.24 175.52C610.62 178.58 631.12 172.13 648.01 155.17C660.15 142.98 666.77 128.26 667.8 111.25C669.69 79.78 649.73 51.3099 618.68 43.5099C587.12 35.5899 553.82 53.21 545.22 86.41C537.36 116.78 556.57 149.27 589.05 153.91C611.11 157.06 635.07 144.8 642.22 121.27C649.49 97.3399 635.76 70.8599 609.63 67.0299C587.81 63.84 566.82 80.6199 569.74 103.84C571.8 120.26 587.46 131.62 602.97 126.69C614.05 123.17 619.93 111.17 615.25 101.34C612.63 95.84 605.97 93.0699 602.26 95.2399C604.46 96.8199 607.46 98.14 609.22 100.41C613.88 106.42 610.65 115.6 603.27 118.42C596.95 120.84 591.17 119.72 586.2 115.27C580.63 110.29 578.56 103.6 580.45 96.6799C585.7 77.4899 607.85 74.27 620.23 85.6399C636.21 100.31 631.51 124.34 613.74 134.39C595.62 144.64 573.95 137.15 564.53 119.12C553.39 97.7999 562.71 73.0799 583.9 62.8699C608.57 50.9799 636.38 62.6499 647.33 86.6299C658.92 112.03 649.25 140.25 626.1 154.27C604.73 167.21 582.82 166.38 561.66 152.75C549.29 144.78 540.86 133.67 536.37 119.74C529.37 98.0199 532.58 77.67 545.43 58.86C555.65 43.9 569.76 34.4 587.13 29.6C588.32 29.27 589.46 28.78 590.62 28.36L590.64 28.35Z" fill="#D6AA40"/> -->
<path id="spiral" style="transform-box: fill-box; transform-origin: center;" d="M590.64 28.3499C589.48 28.7699 588.34 29.2599 587.15 29.5899C569.77 34.3999 555.67 43.8899 545.45 58.8499C532.6 77.6599 529.39 97.9999 536.39 119.73C540.88 133.67 549.31 144.78 561.68 152.74C582.84 166.37 604.75 167.2 626.12 154.26C649.27 140.24 658.94 112.03 647.35 86.6199C636.41 62.6399 608.59 50.9699 583.92 62.8599C562.73 73.0699 553.42 97.7899 564.55 119.11C573.97 137.15 595.64 144.63 613.76 134.38C631.53 124.33 636.23 100.29 620.25 85.6299C607.87 74.2699 585.71 77.4799 580.47 96.6699C578.58 103.59 580.65 110.28 586.22 115.26C591.19 119.7 596.96 120.82 603.29 118.41C610.67 115.59 613.9 106.42 609.24 100.4C607.48 98.1199 604.48 96.8099 602.28 95.2299C605.99 93.0699 612.64 95.8299 615.27 101.33C619.96 111.16 614.07 123.16 602.99 126.68C587.48 131.61 571.82 120.25 569.76 103.83C566.84 80.6099 587.82 63.8199 609.65 67.0199C635.78 70.8499 649.51 97.3299 642.24 121.26C635.09 144.79 611.13 157.05 589.07 153.9C556.59 149.26 537.38 116.77 545.24 86.3999C553.84 53.1999 587.14 35.5799 618.7 43.4999C649.75 51.2999 669.71 79.7699 667.82 111.24C666.8 128.25 660.17 142.97 648.03 155.16C631.14 172.13 610.65 178.57 587.26 175.51C572.39 173.56 559.4 167.1 548.31 156.73C533.15 142.55 525.11 125.1 524.66 104.56C524.17 82.3299 531.75 63.1199 548.22 47.5899C559.26 37.1799 572.08 30.6299 586.91 27.8499C588.05 27.6399 589.21 27.5699 590.37 27.4399C590.47 27.7399 590.56 28.0399 590.66 28.3399L590.64 28.3499Z" fill="#D6AA40">
    <animateTransform 
    attributeType="xml" 
    attributeName="transform" 
    type="rotate" 
    from="360 0 0" 
    to="0 0 0" 
    dur="2s" 
    additive="sum" 
    repeatCount="indefinite" />
</path>
</g>
</g>
</g>
</g>
<g id="Group 3">
<path id="Vector_11" d="M108.97 236.53H90.11V251.86H110.85L110.15 256.29H85V214.35H109.85V218.81H90.1V232.04H108.96V236.53H108.97Z" fill="#D6AA40"/>
<path id="Vector_12" d="M152.25 256.29V214.35H159.15C175.88 244.12 178.14 248.14 178.91 249.98H178.99C178.6 244.4 178.54 237.63 178.54 230.83V214.35H183.47V256.29H177.08C159.18 224.05 157.86 221.41 156.96 219.65H156.9C157.2 225.07 157.15 232.1 157.15 239.63V256.29H152.26H152.25Z" fill="#D6AA40"/>
<path id="Vector_13" d="M236.13 218.84H223.86V214.35H253.7V218.84H241.39V256.29H236.14V218.84H236.13Z" fill="#D6AA40"/>
<path id="Vector_14" d="M317.95 236.53H299.09V251.86H319.83L319.13 256.29H293.98V214.35H318.83V218.81H299.08V232.04H317.94V236.53H317.95Z" fill="#D6AA40"/>
<path id="Vector_15" d="M366.4 237.21V256.29H361.23V214.35H376.07C383.48 214.35 388.68 218.02 388.68 225.16C388.68 231.22 385.08 233.91 381.79 234.96C386.17 236.36 388.04 239.82 388.04 245.53V246.29C388.04 250.17 388.13 253.83 388.63 256.29H383.49C382.92 254.61 382.78 250.72 382.78 246.34V245.5C382.78 239.55 380.63 237.21 373.72 237.21H366.39H366.4ZM366.4 232.9H374.14C379.61 232.9 383.38 231.34 383.38 225.46C383.38 220.97 380.37 218.66 375.37 218.66H366.4V232.91V232.9Z" fill="#D6AA40"/>
<path id="Vector_16" d="M439.65 218.84H427.38V214.35H457.22V218.84H444.91V256.29H439.66V218.84H439.65Z" fill="#D6AA40"/>
<path id="Vector_17" d="M497.78 243.53L493.69 256.29H488.48C491.42 247.54 498.84 224.27 502.13 214.35H508.72L522.96 256.29H517.38L513.17 243.53H497.77H497.78ZM511.93 239.04C508.38 228.24 506.13 221.99 505.32 218.65H505.22C504.05 223.6 501.88 230.06 498.97 239.04H511.93Z" fill="#D6AA40"/>
<path id="Vector_18" d="M568.72 214.35V256.29H563.53V214.35H568.72Z" fill="#D6AA40"/>
<path id="Vector_19" d="M613.96 256.29V214.35H620.86C637.59 244.12 639.85 248.14 640.62 249.98H640.7C640.31 244.4 640.25 237.63 640.25 230.83V214.35H645.18V256.29H638.79C620.89 224.05 619.57 221.41 618.67 219.65H618.61C618.91 225.07 618.86 232.1 618.86 239.63V256.29H613.97H613.96Z" fill="#D6AA40"/>
<path id="Vector_20" d="M724.23 238.42C724.23 230.67 724.31 222.66 724.49 218.23H724.32C722.34 225.76 715.91 244.25 711.58 256.29H706.74C703.48 246.23 696.87 226.17 694.84 218.15H694.63C694.96 223.01 695.1 232.37 695.1 239.58V256.29H690.19V214.35H698.02C702.38 226.76 708.01 243.89 709.46 249.66H709.56C710.39 245.64 717.14 226.84 721.7 214.35H729.33V256.29H724.23V238.42Z" fill="#D6AA40"/>
<path id="Vector_21" d="M798.49 236.53H779.63V251.86H800.38L799.68 256.29H774.53V214.35H799.38V218.81H779.63V232.04H798.49V236.53Z" fill="#D6AA40"/>
<path id="Vector_22" d="M841.77 256.29V214.35H848.67C865.4 244.12 867.66 248.14 868.43 249.98H868.51C868.12 244.4 868.06 237.63 868.06 230.83V214.35H872.99V256.29H866.6C848.7 224.05 847.38 221.41 846.48 219.65H846.42C846.72 225.07 846.67 232.1 846.67 239.63V256.29H841.78H841.77Z" fill="#D6AA40"/>
<path id="Vector_23" d="M925.65 218.84H913.38V214.35H943.22V218.84H930.91V256.29H925.66V218.84H925.65Z" fill="#D6AA40"/>
</g>
</g>
</svg>
