<svg width="20" height="20" viewBox="0 0 20 20" fill="none" xmlns="http://www.w3.org/2000/svg">
<path d="M10 0C4.48 0 0 4.48 0 10C0 15.52 4.48 20 10 20C15.52 20 20 15.52 20 10C20 4.48 15.52 0 10 0ZM13.42 14.58C13.3508 14.677 13.2592 14.7558 13.153 14.8097C13.0468 14.8637 12.9291 14.8912 12.81 14.89C12.66 14.89 12.51 14.84 12.37 14.75C11.6159 14.2099 10.7384 13.8674 9.81778 13.7539C8.89716 13.6403 7.96277 13.7593 7.1 14.1C6.91556 14.1714 6.71042 14.1674 6.52892 14.0888C6.34742 14.0102 6.20412 13.8634 6.13 13.68C6.05777 13.4956 6.06139 13.2902 6.14008 13.1084C6.21876 12.9267 6.36612 12.7835 6.55 12.71C8.79 11.82 11.29 12.13 13.24 13.53C13.59 13.78 13.66 14.25 13.42 14.58ZM14.52 11.79C14.4508 11.887 14.3592 11.9658 14.253 12.0197C14.1468 12.0737 14.0291 12.1012 13.91 12.1C13.76 12.1 13.61 12.05 13.47 11.96C12.4323 11.2133 11.223 10.7403 9.95404 10.5847C8.68508 10.4292 7.39738 10.5961 6.21 11.07C6.02556 11.1414 5.82042 11.1374 5.63892 11.0588C5.45742 10.9802 5.31412 10.8334 5.24 10.65C5.16777 10.4656 5.1714 10.2602 5.25008 10.0784C5.32876 9.89672 5.47612 9.75349 5.66 9.68C7.0799 9.11318 8.61994 8.91406 10.1373 9.10111C11.6547 9.28816 13.1003 9.85532 14.34 10.75C14.68 10.99 14.76 11.46 14.52 11.79ZM16.09 9.11C16.0208 9.20696 15.9292 9.28577 15.823 9.33974C15.7168 9.39371 15.5991 9.42124 15.48 9.42C15.33 9.42 15.18 9.37 15.04 9.28C12.06 7.14 8.24 6.67 4.84 8.03C4.65562 8.10223 4.45016 8.09861 4.26844 8.01992C4.08672 7.94124 3.94349 7.79388 3.87 7.61C3.72 7.23 3.91 6.79 4.29 6.64C8.17 5.1 12.52 5.63 15.92 8.07C16.26 8.3 16.34 8.77 16.09 9.11Z" fill="#D6AA40"/>
</svg>
